<?xml version="1.0" encoding="UTF-8"?><svg id="a" xmlns="http://www.w3.org/2000/svg" width="1055.176" height="298.14" viewBox="0 0 1055.176 298.14"><path d="M246.27,170.965c-1.106-.492-1.866-.346-2.567.66-.684.982.332,2.57.86,3.336,2.378,3.45,7.275,3.107,7.078-1.646-.228-5.523-5.394-10.421-10.515-11.654-12.951-3.117-22.539,14.252-24.461,24.567-1.048,5.626-.712,11.423,2.641,16.247,2.756,3.966,7.585,6.805,12.188,4.093,5.206-3.067,9.42-9.964,12.406-15.041,3.659-6.222,5.951-13.146,7.392-20.193.419-2.051-4.165-6.642-5.189-3.883-3.611,9.733-6.325,23.904-1.983,33.887,1.404,3.227,4.61,5.975,8.318,5.131,4.738-1.078,7.528-6.571,9.875-10.284,6.924-10.955,13.031-22.432,18.257-34.29,2.617-5.938,4.931-11.978,7.182-18.061,2.374-6.415,5.355-12.69,7.517-19.158,1.156-3.459-5.606-9.977-6.939-6.163-6.672,19.074-11.224,39.199-16.28,58.751-2.592,10.021-5.103,20.063-7.534,30.124-2.373,9.822-5.659,19.759-4.915,29.951.111,1.516,2.877,4.581,4.234,2.62,5.364-7.751,6.249-18.798,8.407-27.804,2.338-9.757,4.752-19.496,7.24-29.216,5.053-19.734,11.356-39.248,16.015-59.063l-7.395-4.562c-2.156,10.231-4.372,19.866-8.257,29.637-3.701,9.307-7.932,18.401-12.669,27.226-2.229,4.153-4.569,8.245-7.018,12.272-2.401,3.948-4.813,9.357-8.791,11.912-5.009,3.217-4.293-9.542-4.107-12.234.389-5.615,1.758-11.009,3.867-16.215l-5.024-4.462c-2.414,6.308-5.51,12.209-9.203,17.859-2.093,3.203-4.44,6.245-6.977,9.109-.982,1.109-1.967,2.414-3.149,3.304-.863.65-2.899,1.113-2.354,1.615-1.766-1.627-.358-7.141.071-9.15.713-3.337,2.028-6.543,3.763-9.479s3.967-5.655,6.633-7.802c1.614-1.3,3.406-2.527,5.484-2.921,1.048-.33,2.123-.329,3.225.002.346.333.492.74.437,1.221l2.963.671.91,1.919c.586-1.085-.761-2.445-1.636-2.834h0Z" fill="#2f3640"/><path d="M303.395,140.795c2.24-3.514,4.7-6.885,6.803-10.482,2.065-3.532,3.445-7.522,5.716-10.886,2.102-3.114-5.102-9.607-6.752-5.996-4.195,9.18-6.475,19.719-9.32,29.396-2.812,9.564-5.459,19.176-7.984,28.82-2.615,9.988-5.112,20.012-7.42,30.076-2.038,8.888-4.439,18.592-1.051,27.437.316.825,2.659,3.443,3.416,1.684.652-1.515.848-2.597.681-4.229-.043-.422-.817-1.314-1.206-.746l-2.333,1.446,2.858,3.529c1.214-3.849,1.586-7.919,2.424-11.861,1.023-4.813,2.257-9.586,3.379-14.377,2.207-9.424,4.539-18.819,6.996-28.181,2.548-9.709,5.236-19.381,8.027-29.022,2.756-9.519,6.519-19.055,8.505-28.754l-7.195-4.439c-.369,8.389-3.384,18.032-6.459,25.774-.166.419.594,1.313.913.811h0Z" fill="#2f3640"/><path d="M320.701,147.939c4.379-7.606,8.703-15.383,12.789-23.151l-6.81-6.048c-3.963,8.611-6.325,18.345-9.183,27.387-2.817,8.912-5.511,17.864-8.133,26.834-2.524,8.632-4.972,17.286-7.341,25.962-1.926,7.054-3.529,13.767,1.641,19.875,1.139,1.346,4.545,3.934,5.941,1.347,8.097-15.004,15.181-30.537,22.941-45.718l-4.857-2.394c2.594,9.618,6.625,21.454,17.395,24.443,5.741,1.593,11.883-.344,16.303-4.174,3.986-3.454,8.565-9.647,9.416-14.936.656-4.077-1.357-9.321-5.652-10.596-5.337-1.584-9.661,6.203-11.516,10.049-4.449,9.229-5.534,26.237,5.378,31.72,6.216,3.123,12.417-.802,16.548-5.472,5.778-6.533,10.717-13.545,14.788-21.272.189-.358-.538-1.259-.85-.891-6.367,7.488-13.824,15.389-22.502,20.204-3.002,1.665-7.335,3.539-9.174-1.039-.87-2.165-.717-5.325-.541-7.551.373-4.734,1.91-9.374,4.491-13.365.685-1.06,1.62-1.97,2.277-3.033l1.029-1.094-.441-1.464c-.624.431-1.656,5.606-2.226,6.735-2.374,4.701-6.329,8.666-11.398,10.317-11.607,3.78-16.227-8.497-18.322-17.414-.339-1.442-3.508-5.806-5.04-3.118-8.322,14.603-17.311,28.833-25.302,43.621l5.941,1.347c-1.848-2.185.617-8.24,1.213-10.421,1.018-3.731,2.051-7.458,3.098-11.181,2.278-8.097,4.633-16.172,7.057-24.226,2.229-7.41,4.516-14.804,6.839-22.185,2.4-7.627,5.449-15.239,7.216-23.034.762-3.36-6.007-9.187-7.257-4.478-2.426,9.139-4.687,18.404-6.816,27.619-.097.419.749,1.337,1.061.794h0Z" fill="#2f3640"/><path d="M396.834,171.09c2.538-2.879,4.906-4.762,6.826-8.255,1.904-3.464-5.485-9.929-7.008-6.224-6.64,16.155-10.809,33.168-12.733,50.52-.27,2.433,3.174,7.843,6.194,6.531,6.41-2.784,9.394-8.686,12.734-14.473,4.502-7.8,9.004-15.601,13.505-23.401-2.385-2.118-4.771-4.237-7.156-6.355-3.31,7.943-5.478,16.327-6.066,24.929-.433,6.335-.32,14.234,6.08,17.735,6.089,3.331,10.77-3.588,13.473-8.202,4.151-7.083,3.335-14.513,5.039-22.155l-2.135,1.081c10.642,3.345,23.066,2.608,33.11-2.14,1.317-.623-.233-2.861-1.313-2.841-5.652.102-11.296.127-16.946.272-5.433.14-10.798-.724-16.213-.69-1.016.007-1.76.797-1.501,1.863,1.233,5.076-.89,10.28-3.558,14.55-1.32,2.112-2.744,4.195-4.427,6.033-1.141,1.245-4.039,2.899-4.699,4.35l.819,1.721-.242-1.334c.105-1.235-.025-2.525.026-3.769.108-2.665.389-5.328.797-7.963.914-5.908,2.611-11.572,4.912-17.084,1.381-3.309-4.868-10.314-7.156-6.355-3.862,6.683-7.724,13.366-11.586,20.049-3.118,5.396-6.126,13.185-12.239,15.836l6.194,6.531c1.878-16.857,6.02-33.186,12.095-49.014l-7.238-5.416c-.815,4.363-.462,8.4-.578,12.786-.008.307.602,1.324.99.884h0Z" fill="#2f3640"/><path d="M242.637,142.885l-3.025.55c-2.315.152-.264,3.284.934,3.704,8.057,2.823,18.304.781,26.708.362,9.221-.459,18.438-1.009,27.656-1.53,17.423-.986,35.574-1.243,52.536-5.74,1.004-.266-.286-1.803-.865-1.872-18.625-2.222-37.606-.636-56.256.42-9.21.521-18.421,1.028-27.627,1.612-4.172.265-8.349.489-12.516.831-3.844.315-8.021.143-11.279,2.399l3.002,3.148c.256-1.111.737-2.113,1.443-3.006.212-.335-.357-.979-.711-.878h0Z" fill="#2f3640"/><path d="M385.524,113.186c18.926-3.464,37.845-7.342,57.052-8.901,9.859-.8,19.791-.956,29.657-.191,7.676.595,17.799.784,24.194,5.594,6.714,5.05,4.249,15.619,2.565,22.606-2.259,9.369-4.956,18.653-7.445,27.963-5.13,19.184-10.313,38.354-15.483,57.527-.762,2.826,3.989,8.154,6.849,6.117,13.589-9.678,20.022-25.505,26.584-40.229,8.363-18.766,17.021-37.401,25.97-55.895,17.897-36.989,36.967-73.399,57.165-109.183l-7.189-6.384c-17.281,45.643-34.53,91.376-48.181,138.265-3.288,11.292-6.38,22.641-9.202,34.058-1.454,5.88-2.838,11.777-4.144,17.692-1.149,5.204-2.603,10.578-.26,15.677,1.487,3.235,4.22,5.973,7.677,7.048,4.272,1.329,6.62-.554,8.772-3.981,6.598-10.509,12.743-21.333,19.106-31.987l21.117-35.354c6.375-10.673,12.426-21.788,22.174-29.802l-6.992-6.245c-8.515,34.513-22.18,67.68-28.492,102.749-4.564,25.354-9.423,68.811,24.009,76.789,19.256,4.595,33.41-7.204,47.658-18.264,1.401-1.088-1.207-4.247-2.704-3.339-12.416,7.527-27.76,15.299-42.772,13.915-15.279-1.408-20.625-13.691-21.513-27.466-1.948-30.223,8.07-61.188,16.936-89.656,5.16-16.568,10.456-33.1,14.612-49.957.674-2.732-4.147-8.584-6.992-6.245-6.912,5.684-12.126,12.918-16.808,20.479-5.61,9.06-10.961,18.287-16.424,27.436l-17.091,28.623-8.546,14.311c-1.34,2.244-2.66,4.503-4.021,6.735-1.554,2.549-3.605,4.823-3.149.403,1.076-10.433,4.593-21.148,7.193-31.293,2.776-10.833,5.784-21.606,8.983-32.321,6.297-21.092,13.3-41.968,20.666-62.709,8.227-23.168,16.91-46.172,25.576-69.178,1.244-3.301-4.913-10.433-7.189-6.384-19.821,35.263-38.618,71.1-56.273,107.496-8.686,17.908-17.101,35.947-25.238,54.111-6.869,15.331-12.998,32.324-27.141,42.524l6.849,6.117c4.484-16.983,8.947-33.972,13.466-50.945,2.301-8.642,4.602-17.284,6.903-25.927,1.886-7.084,4.137-14.269,4.045-21.676-.168-13.535-9.31-22.552-22.042-25.536-15.203-3.564-31.502-3.282-46.969-2.059-19.455,1.538-38.647,5.332-57.668,9.568-3.711.826.917,7.894,4.15,7.303h0Z" fill="#2f3640"/><path d="M5.524,102.186c18.926-3.464,37.845-7.342,57.052-8.901,9.859-.8,19.791-.956,29.657-.191,7.676.595,17.799.784,24.194,5.594,6.714,5.05,4.249,15.619,2.565,22.606-2.259,9.369-4.956,18.653-7.445,27.963-5.13,19.184-10.313,38.354-15.483,57.527-.762,2.826,3.989,8.154,6.849,6.117,13.589-9.678,20.022-25.505,26.584-40.229,8.363-18.766,17.021-37.401,25.97-55.895,17.897-36.989,36.967-73.399,57.165-109.183l-7.189-6.384c-17.281,45.643-34.53,91.376-48.181,138.265-3.288,11.292-6.38,22.641-9.202,34.058-1.454,5.88-2.838,11.777-4.144,17.692-1.149,5.204-2.603,10.578-.26,15.677,1.487,3.235,4.22,5.973,7.677,7.048,4.272,1.329,6.62-.554,8.772-3.981,6.598-10.509,12.743-21.333,19.106-31.987l21.117-35.354c6.375-10.673,12.426-21.788,22.174-29.802l-6.992-6.245c-8.515,34.513-22.18,67.68-28.492,102.749-4.564,25.354-9.423,68.811,24.009,76.789,19.256,4.595,33.41-7.204,47.658-18.264,1.401-1.088-1.207-4.247-2.704-3.339-12.416,7.527-27.76,15.299-42.772,13.915-15.279-1.408-20.625-13.691-21.513-27.466-1.948-30.223,8.07-61.188,16.936-89.656,5.16-16.568,10.456-33.1,14.612-49.957.674-2.732-4.147-8.584-6.992-6.245-6.912,5.684-12.126,12.918-16.808,20.479-5.61,9.06-10.961,18.287-16.424,27.436l-17.091,28.623-8.546,14.311c-1.34,2.244-2.66,4.503-4.021,6.735-1.554,2.549-3.605,4.823-3.149.403,1.076-10.433,4.593-21.148,7.193-31.293,2.776-10.833,5.784-21.606,8.983-32.321,6.297-21.092,13.3-41.968,20.666-62.709,8.227-23.168,16.91-46.172,25.576-69.178,1.244-3.301-4.913-10.433-7.189-6.384-19.821,35.263-38.618,71.1-56.273,107.496-8.686,17.908-17.101,35.947-25.238,54.111-6.869,15.331-12.998,32.324-27.141,42.524l6.849,6.117c4.484-16.983,8.947-33.972,13.466-50.945,2.301-8.642,4.602-17.284,6.903-25.927,1.886-7.084,4.137-14.269,4.045-21.676-.168-13.535-9.31-22.552-22.042-25.536-15.203-3.564-31.502-3.282-46.969-2.059-19.455,1.538-38.647,5.332-57.668,9.568-3.711.826.917,7.894,4.15,7.303h0Z" fill="#2f3640"/><path d="M614.169,171.685l2.728-.639-2.923-5.062c-2.5,3.359-4.165,6.911-5.605,10.828l5.944,3.678c-1.054-4.787.037-9.481-5.013-12.362-3.745-2.137-7.994-.33-10.887,2.426-7.586,7.228-10.678,18.927-4.46,27.972,15.706,22.849,46.292-7.442,55.729-21.436.305-.452-.564-1.403-1.036-1.086-6.58,4.417-12.809,9.422-19.384,13.891-6.12,4.16-12.645,9.056-20.216,9.943-3.841.45-8.82-.173-11.105-3.698-2.323-3.584-1.312-8.701.346-12.283,1.371-2.962,3.46-5.927,6.04-7.963.559-.441,3.528-2.548,4.354-1.881-1.275-1.03-.498,4.188-.485,4.245.316,1.376,4.714,7.15,5.944,3.678,1.392-3.928,3.147-7.685,4.883-11.469,1.885-4.109-6.56-7.475-5.012-2.471l-.373,3.131c-.101.247.262.729.531.557h0Z" fill="#2f3640"/><path d="M750.611,103.593c2.514-1.036,4.802-2,7.046-3.551l-5.277-6.516c-5.673,5.071-8.682,13.371-10.764,20.482-.955,3.261,5.236,10.657,7.221,6.413,3.615-7.73,6.248-15.908,7.919-24.277,1.486-7.444,2.76-15.748,1.338-23.305-2.489-13.229-14.828-21.27-27.987-19.218-14.836,2.313-27.714,16.028-37.545,26.399-10.814,11.407-20.297,24.196-27.893,37.961-15.681,28.419-26.933,64.287-19.486,96.781,2.998,13.082,9.973,26.811,22.326,33.268,14.099,7.37,29.355,1.131,41.142-7.711,15.542-11.658,29.189-26.693,42.103-41.127,13.297-14.862,24.812-31.02,34.691-48.33.339-.594-.893-2.074-1.408-1.476-19.455,22.571-38.861,45.496-60.183,66.35-10.275,10.049-21.361,21.789-35.344,26.46-13.882,4.637-26.059-1.865-32.133-14.612-6.22-13.054-6.474-28.751-4.802-42.835,1.748-14.728,6.016-29.12,11.762-42.765,10.665-25.327,26.839-48.378,47.248-66.796,5.745-5.184,11.911-10.496,19.384-12.954,6.074-1.998,15.42-2.316,19.572,3.631,4.303,6.164,1.495,17.246.15,23.978-1.677,8.398-4.527,16.387-8.076,24.164l7.458,5.58c2.059-7.268,6.094-13.235,9.008-20.083,1.208-2.839-4.188-8.826-6.128-5.442-1.36,2.373-2.191,4.814-3.074,7.393-.267.781.746,2.543,1.73,2.137h0Z" fill="#2f3640"/><path d="M797.344,131.711c1.556-4.027,3.136-6.766,5.696-10.254,2.081-2.835-4.659-9.438-6.612-5.872-5.009,9.149-7.918,20.031-11.615,29.782-3.631,9.577-7.344,19.14-10.78,28.789-2.634,7.396-6.308,17.547-2.834,25.217s10.279,6.9,16.389,3.174c7.645-4.662,14.796-10.132,21.071-16.533,3.848-3.926,12.612-11.417,11.105-17.62-1.63-6.708-9.221-8.16-14.01-3.981-5.11,4.459-8.604,11.98-7.348,18.783,1.289,6.984,7.436,12.342,14.448,12.958,9.955.875,16.164-7.441,21.817-14.3.432-.525-.524-1.807-1.082-1.336-5.702,4.821-12.46,9.665-20.249,9.679-3.882.007-8.114-1.198-8.842-5.505-.584-3.461,1.026-7.204,2.875-10.072.927-1.439,2.045-2.949,3.343-4.08.907-.93,1.992-1.58,3.255-1.95l-.634.461c-.578,2.869-5.676,7.234-7.703,9.371-4.683,4.936-9.871,9.332-15.542,13.093-3.219,2.135-6.538,3.723-9.937,5.531-1.931,1.027-2.519,2.298-2.425-.92.051-1.754.299-3.532.607-5.257,1.449-8.112,5.031-15.889,7.92-23.565,2.973-7.899,5.928-15.804,8.871-23.714,2.793-7.508,6.299-15.091,8.129-22.897l-7.027-3.451c.514,4.773.714,9.11.377,13.917-.018.254.573.975.737.551h0Z" fill="#2f3640"/><path d="M842.177,170.883c2.845-1.399,5.156-3.434,5.865-6.569.656-2.901-5.03-9.121-7.285-5.451-7.479,12.173-11.843,26.145-13.364,40.307-.293,2.727,5.323,9.719,7.489,5.603,6.002-11.405,13.895-20.952,22.444-30.501l-5.286-5.542c-2.534,8.053-5.848,22.036,1.029,28.978,7.09,7.158,16.929-3.898,20.257-9.962.227-.413-.578-1.429-.983-1.031-1.985,1.955-3.956,3.88-6.349,5.335-2.206,1.341-7.987,4.691-10.46,2.15-1.33-1.366-.375-7.409-.207-9.252.348-3.827,1.175-7.531,2.393-11.175.78-2.334-2.574-7.489-5.286-5.542-10.591,7.606-18.749,18.68-24.803,30.102,2.496,1.868,4.993,3.735,7.489,5.603,1.528-13.886,5.951-26.623,12.691-38.81l-7.003-3.452c1.077,2.828,1.441,5.226.54,8.182-.108.353.36,1.256.83,1.025h0Z" fill="#2f3640"/><path d="M901.808,178.474c-2.409-3.98-3.298-4.919-2.665-2.816.191.517.461.989.81,1.416.669.827,1.49,1.227,2.425,1.67.795.376,1.916.209,2.332-.635,2.691-5.461-5.07-10.678-9.555-11.955-5.805-1.652-12.5.001-17.002,3.984-8.165,7.223-15.618,27.717-1.277,32.636,7.145,2.45,11.986-3.751,15.665-8.932,4.753-6.694,9.076-13.7,12.974-20.925,8.234-15.262,14.379-31.494,18.661-48.287.774-3.037-6.008-9.52-7.501-5.613-6.317,16.524-12.041,33.267-17.092,50.221-2.427,8.148-4.715,16.338-6.849,24.568-2.165,8.352-4.986,17.063-3.485,25.756.144.836,1.814,3.257,2.879,2.173,5.18-5.273,6.094-14.446,7.86-21.326,2.205-8.591,4.577-17.138,7.122-25.635,4.986-16.643,10.62-33.081,16.827-49.307-2.5-1.871-5.001-3.742-7.501-5.613-5.441,21.329-14.32,41.73-26.244,60.237-2.697,4.186-5.529,9.669-9.497,12.772-1.021.799-2.024,1.28-3.217,1.793-1.661-.54-2.139-.316-1.434.671.28.942.427.911.441-.093,1.203-1.666,1.108-5.535,1.842-7.603,1.667-4.703,4.422-9.349,8.906-11.819,1.76-.97,3.789-1.653,5.804-1.816.954-.077,2.011-.064,2.957.108.863.157,2.875,1.55,2.963.233-.124,1.831,1.305,3.406,2.852,4.137h0Z" fill="#2f3640"/><path d="M926.002,179.875c1.44-.872,2.42-1.594,3.54-2.854,2.393-2.694-2.714-9.348-5.647-6.974-6.342,5.134-11.069,14.178-12.356,22.193-1.021,6.365,4.47,15.469,11.627,11.035,6.105-3.782,12.348-12.123,11.612-19.585-.674-6.83-5.646-13.244-12.608-14.243-4.944-.71-.426,7.287,2.053,8.14,4.685,1.611,8.843.682,13.284-1.261,4.36-1.907,9.504-5.326,14.439-3.703-1.318-2.283-2.636-4.566-3.954-6.849-3.698,10.05-5.74,20.438-5.971,31.152-.044,2.053,3.905,8.683,6.523,5.826,8.793-9.596,17.586-19.193,26.379-28.789-2.077-2.178-4.154-4.355-6.231-6.533-2.522,8.489-8.499,19.98-3.621,28.566,4.092,7.203,12.305,8.493,19.876,8.099,11.388-.593,22.774-1.593,34.134-2.575,11.757-1.016,24.758-1.351,35.61-6.412,1.294-.604-.311-2.436-1.189-2.574-17.49-2.745-36.105.879-53.611,2.274-7.886.628-16.543,2.278-24.427,1.251-1.126-.147-3.34-.255-4.219-1.153-1.95-1.992-.43-6.062.171-8.22,1.242-4.458,2.644-8.877,3.972-13.31.72-2.405-3.508-9.489-6.231-6.533-8.815,9.57-17.629,19.139-26.444,28.709,2.174,1.942,4.349,3.884,6.523,5.826.241-10.159,2.053-20.001,5.587-29.537.98-2.643-1.46-6.023-3.954-6.849-4.651-1.54-8.819-.607-13.263,1.187-4.362,1.761-9.644,5.022-14.501,3.488.684,2.713,1.369,5.426,2.053,8.14,6.907.796-3.909,19.213-9.827,18.236l2.823,1.391c.699,1.112.987.92.864-.578.266-1.315.605-2.611,1.016-3.889.662-2.055,1.513-4.057,2.497-5.978,2.004-3.912,4.792-7.1,7.466-10.541-2.258-1.689-4.515-3.378-6.773-5.068-.261,2.156-.221,4.188-.074,6.344.077,1.128,1.657,2.876,2.852,2.152h0Z" fill="#2f3640"/></svg>