<?xml version="1.0" encoding="UTF-8"?>
<svg id="Layer_1" data-name="Layer 1" xmlns="http://www.w3.org/2000/svg" viewBox="0 0 393.25 45.56">
  <defs>
    <style>
      .cls-1 {
        fill: #3e5a82;
      }
    </style>
  </defs>
  <rect class="cls-1" x="3.01" y="2.51" width="40" height="40"/>
  <g>
    <path d="M83.06,26.41c2.01-.71,5.06-1.58,7.45-2.02v1.74c-2.17.44-4.98,1.34-6.42,1.92-4.2,1.64-4.73,3.45-4.73,4.89,0,2.54,1.66,3.55,3.83,3.55,1.64,0,2.58-.61,5.52-2.71l1.02-.76.66.99-1.43,1.44c-2.85,2.86-4.47,4.21-7.43,4.21-3.52,0-6.42-2.03-6.42-6.01,0-2.73,1.47-4.9,7.95-7.24ZM88.47,34.65v-11.01c0-4.68-1.31-5.84-4.48-5.84-1.11,0-2.54.14-4.33.85l2-1.51-1.2,4.08c-.41,1.5-1.18,2.29-2.51,2.29s-2.11-.73-2.22-1.95c.87-3.67,4.44-5.95,9.37-5.95s7.42,2.28,7.42,8.35v10.21c0,2.09.66,2.84,1.74,2.84.8,0,1.32-.42,1.85-1.06l.98,1.04c-1.15,1.87-2.47,2.52-4.18,2.52-2.68,0-4.41-1.91-4.43-4.88Z"/>
    <path d="M102.89,39.04c.1-2.16.14-7.1.14-10.08v-2.29c0-2.64-.05-4.1-.14-6.02l-3.79-.43v-1.69l6.7-2.9.73.48.57,5.55v7.29c0,2.98.05,7.92.14,10.08h-4.35ZM110.53,37.32v1.71h-11.13v-1.71l5.23-.96h1.11l4.78.96ZM121.49,24.47v4.48c0,3.07.05,7.92.14,10.08h-4.34c.1-2.16.14-7.01.14-10.08v-4.07c0-4.4-1.12-5.83-3.96-5.83-2.34,0-4.23,1-6.84,3.32h-1.05v-2.21h2.48l-2.03.89c2.29-3.1,5.94-5.44,9.31-5.44,4.15,0,6.14,2.55,6.14,8.84ZM120.15,36.36l4.78.96v1.71h-11.12v-1.71l5.22-.96h1.12ZM135.88,23.99v4.97c0,3.07.05,7.92.14,10.08h-4.34c.1-2.16.14-7.01.14-10.08v-4.16c0-4.46-1.22-5.74-4-5.74-2.15,0-4.17.89-6.81,3.32h-1.18v-1.77h2.64l-2.19.45c2.55-3.63,6.05-5.44,9.45-5.44,3.9,0,6.15,2.42,6.15,8.36ZM134.54,36.36l4.78.96v1.71h-11.12v-1.71l5.21-.96h1.12Z"/>
    <path d="M145.71,39.04c.1-2.16.14-7.1.14-10.08v-2.26c0-2.64-.05-4.13-.14-6.05l-3.88-.43v-1.69l7.41-2.9.73.48-.14,6.51v6.34c0,2.98.05,7.92.14,10.08h-4.25ZM153.27,37.32v1.71h-11.14v-1.71l5.23-.96h1.11l4.79.96ZM144.57,7.24c0-1.85,1.42-3.07,3.22-3.07s3.22,1.22,3.22,3.07-1.42,3.07-3.22,3.07-3.22-1.27-3.22-3.07Z"/>
    <path d="M166.02,36.94c2.44,0,4.12-1.09,6.29-3.9l.44,1.27c-1.86,3.37-4.15,5.36-7.92,5.36-5.83,0-9.78-4.82-9.78-11.83s4.37-12.21,10.24-12.21c2.82,0,5.15,1.17,7.63,4.94l-.48,1.23c-2.73-2.66-4.62-3.45-6.45-3.45-3.56,0-6.63,2.87-6.63,9.4s2.83,9.2,6.67,9.2ZM179.35,37.32v1.71l-7.46.48-.49-4.86v-14.17l.15-.62V7.89l-4.08-.48v-1.7l7.5-2.16.68.39-.19,6.81v28.29l-.91-2.51,4.8.8Z"/>
    <path d="M201.47,37.18c1.05,0,2-.43,3.23-1.33l1.11,1.29c-1.2,1.59-3.19,2.53-5.65,2.53-3.37,0-5.46-1.74-5.46-5.5,0-1.18.05-2.21.05-4.08v-11.29h-3.98v-2.11l5.94-.77-1.97,1.6,1.53-7.81h2.91l-.37,8.42v15.51c0,2.48,1.05,3.54,2.67,3.54ZM205.33,16.26v2.54h-8.56v-2.54h8.56Z"/>
    <path d="M211.45,7.89l-3.93-.48v-1.7l7.35-2.16.68.39-.19,6.81v10.14l.14.62v7.44c0,2.98.05,7.92.14,10.08h-4.35c.1-2.16.14-7.1.14-10.08V7.89ZM218.9,37.32v1.71h-11.13v-1.71l5.23-.96h1.11l4.78.96ZM230.27,24.47v4.48c0,3.07.05,7.92.14,10.08h-4.34c.1-2.16.14-7.01.14-10.08v-4.09c0-4.39-1.12-5.81-3.95-5.81-2.37,0-4.34.9-7.03,3.34h-1.05v-2.23h2.49l-2.14.89c2.32-3.13,6.18-5.44,9.59-5.44,4.13,0,6.15,2.55,6.15,8.84ZM228.92,36.36l4.79.96v1.71h-11.13v-1.71l5.23-.96h1.11Z"/>
    <path d="M255.35,24.85c0,1.1-.14,2.05-.33,2.68h-17.78v-2.05h11.29c2.3,0,2.84-1.09,2.84-2.48,0-2.76-2.26-5.2-5.21-5.2s-6.46,2.57-6.46,9.44c0,6.08,3.06,9.31,7.79,9.31,3.04,0,4.96-1.37,6.67-3.36l1.13.9c-1.74,3.43-4.84,5.57-9.22,5.57-6.46,0-10.69-4.47-10.69-11.79s5.06-12.25,11.03-12.25c5.02,0,8.94,3.42,8.94,9.22Z"/>
    <path d="M273.35,39.04c.1-2.16.14-7.1.14-10.08v-2.29c0-2.64-.05-4.1-.14-6.02l-3.79-.43v-1.69l6.7-2.9.73.48.57,5.55v7.29c0,2.98.05,7.92.14,10.08h-4.35ZM280.99,37.32v1.71h-11.13v-1.71l5.23-.96h1.11l4.78.96ZM292.14,24.47v4.48c0,3.07.05,7.92.14,10.08h-4.35c.1-2.16.14-7.01.14-10.08v-4.09c0-4.38-1.13-5.81-3.96-5.81-2.36,0-4.35.98-7.04,3.32h-1.04v-2.21h2.49l-2.05.89c2.32-3.13,6.1-5.44,9.51-5.44,4.13,0,6.14,2.55,6.14,8.84ZM290.79,36.36l4.79.96v1.71h-11.13v-1.71l5.23-.96h1.11Z"/>
    <path d="M297.24,27.73c0-7.94,5.42-12.1,11.02-12.1s11.02,4.16,11.02,12.1-5.48,11.93-11.02,11.93-11.02-4-11.02-11.93ZM314.73,27.74c0-6.45-2.39-9.93-6.48-9.93s-6.48,3.48-6.48,9.93,2.29,9.75,6.48,9.75,6.48-3.29,6.48-9.75Z"/>
    <path d="M325.17,39.04c.1-2.16.14-7.1.14-10.08v-2.26c0-2.64-.05-4.13-.14-6.05l-3.88-.43v-1.69l7.41-2.9.73.48-.14,6.51v6.34c0,2.98.05,7.92.14,10.08h-4.25ZM332.73,37.32v1.71h-11.14v-1.71l5.23-.96h1.11l4.79.96ZM324.03,7.24c0-1.85,1.42-3.07,3.22-3.07s3.22,1.22,3.22,3.07-1.42,3.07-3.22,3.07-3.22-1.27-3.22-3.07Z"/>
    <path d="M335.83,37.82l-.17-5.27h2.62l1.28,5.71-2.37-1.09v-1.65c1.7,1.29,3.52,1.97,5.91,1.97,3.64,0,5.36-1.46,5.36-3.65,0-2.03-1.41-3.08-4.44-4.18l-2.23-.81c-3.52-1.28-5.81-3.19-5.81-6.47,0-3.51,2.96-6.74,8.36-6.74,2.61,0,4.64.72,6.73,1.97l-.2,4.87h-2.48l-.98-4.91,1.78.79v1.28c-1.55-1.19-3.14-1.81-4.9-1.81-2.93,0-4.46,1.28-4.46,3.28,0,2.11,1.17,2.94,4.44,4.12l1.49.54c4.79,1.75,6.61,4.02,6.61,7.03,0,3.64-3.18,6.88-9.36,6.88-2.71,0-4.81-.63-7.18-1.85Z"/>
    <path d="M375.28,24.85c0,1.1-.14,2.05-.33,2.68h-17.78v-2.05h11.29c2.3,0,2.84-1.09,2.84-2.48,0-2.76-2.26-5.2-5.21-5.2s-6.46,2.57-6.46,9.44c0,6.08,3.06,9.31,7.79,9.31,3.04,0,4.96-1.37,6.67-3.36l1.13.9c-1.74,3.43-4.84,5.57-9.22,5.57-6.46,0-10.69-4.47-10.69-11.79s5.06-12.25,11.03-12.25c5.02,0,8.94,3.42,8.94,9.22Z"/>
  </g>
</svg>