<?xml version="1.0" encoding="UTF-8"?>
<svg id="Layer_1" data-name="Layer 1" xmlns="http://www.w3.org/2000/svg" viewBox="0 0 372.73 41.04">
  <defs>
    <style>
      .cls-1 {
        fill: #3e5a82;
      }
    </style>
  </defs>
  <rect class="cls-1" width="40" height="40"/>
  <g>
    <path d="M65.46,26.02c2-.65,5.22-1.53,7.55-2.02v1.87c-2.21.5-4.92,1.31-6.34,1.92-3.23,1.29-4.18,3.01-4.18,4.84,0,2.47,1.47,3.53,3.38,3.53,1.29,0,2.15-.5,4.41-2.13l1.45-1.09.58.85-1.71,1.8c-2.6,2.67-4.16,4.08-7.37,4.08-3.61,0-6.36-2.1-6.36-6.07,0-3.06,1.67-5.34,8.59-7.59ZM70.03,34.83v-11.49c0-4.48-1.08-5.68-4.2-5.68-1.14,0-2.47.14-4.41.78l2.62-1.68-.79,3.72c-.27,2.31-1.42,3.34-2.99,3.34s-2.47-.77-2.71-2.17c.58-3.82,4.29-6.31,10.16-6.31,5.56,0,7.98,2.43,7.98,8.68v10.48c0,1.54.53,2.15,1.42,2.15.66,0,1.12-.34,1.66-1.06l1.12.95c-1.15,2.23-2.66,3.05-4.94,3.05-2.96,0-4.72-1.81-4.93-4.76Z"/>
    <path d="M85.15,39c.1-2.16.14-7.1.14-10.08v-2.52c0-2.64-.03-3.88-.14-5.8l-3.38-.43v-1.79l8.03-3.04.77.5.51,5.45v7.64c0,2.98.05,7.92.14,10.08h-6.07ZM93.97,37.04v1.96h-11.85v-1.96l4.86-.96h2.33l4.66.96ZM105.4,23.9v5.02c0,3.07.05,7.92.14,10.08h-6c.1-2.16.14-7.01.14-10.08v-4.33c0-3.9-.91-5.23-3.4-5.23-2.21,0-4.24,1.35-6.3,3.42h-1.4v-2.64h2.73l-1.75,1.11c2.59-3.68,5.81-5.91,9.31-5.91,4.34,0,6.5,2.63,6.5,8.56ZM103.7,36.08l4.61.96v1.96h-11.73v-1.96l4.75-.96h2.37ZM119.69,23.76v5.16c0,3.07.05,7.92.14,10.08h-6c.1-2.16.14-7.01.14-10.08v-4.39c0-4.05-1-5.17-3.39-5.17-2.11,0-4.09,1.11-6.34,3.42h-1.43v-2.46h3l-2.08.93c2.95-4.27,6.07-5.91,9.4-5.91,4.35,0,6.55,2.59,6.55,8.42ZM118.01,36.08l4.66.96v1.96h-11.71v-1.96l4.63-.96h2.42Z"/>
    <path d="M128.51,39c.1-2.16.14-7.1.14-10.08v-2.27c0-2.64-.05-4.13-.14-6.05l-3.44-.43v-1.79l8.68-3.04.77.5-.14,6.73v6.35c0,2.98.05,7.92.14,10.08h-6.01ZM137.35,37.04v1.96h-11.9v-1.96l4.86-.96h2.32l4.73.96ZM127.82,7.44c0-2.04,1.6-3.43,3.63-3.43s3.63,1.39,3.63,3.43-1.6,3.43-3.63,3.43-3.63-1.42-3.63-3.43Z"/>
    <path d="M151.25,36.26c2.38,0,4.02-1.39,5.88-3.98l.5,1.03c-2.11,4.22-4.7,6.36-8.71,6.36-5.65,0-9.69-4.57-9.69-11.97s4.74-12.37,10.4-12.37c3.46,0,5.63,1.7,7.99,5.71l-.48,1.09c-2.33-2.48-3.96-3.44-5.86-3.44-3.25,0-5.91,2.79-5.91,8.91s2.46,8.65,5.87,8.65ZM164.4,37.04v1.96l-8.38.52-.55-4.58v-15.02l.21-.57v-11.04l-3.74-.48v-1.86l8.77-2.16.73.44-.19,6.76v27.99l-2.04-2.98,5.19,1.01Z"/>
    <path d="M188.43,36.5c.97,0,1.84-.4,2.93-1.2l1.14,1.23c-1.24,2-3.34,3.15-6.31,3.15-3.84,0-6.15-1.83-6.15-6.06,0-1.42.05-2.57.05-4.44v-10.26h-3.56v-2.47l5.81-.75-2.34,1.76,2.25-8.08h3.86l-.24,8.52v15.18c0,2.37,1.04,3.41,2.56,3.41ZM191.68,16.02v2.9h-8.69v-2.9h8.69Z"/>
    <path d="M197.68,8.31l-3.47-.48v-1.86l8.58-2.16.72.44-.19,6.76v9.82l.14.62v7.46c0,2.98.05,7.92.14,10.08h-6.07c.1-2.16.14-7.1.14-10.08V8.31ZM206.33,37.04v1.96h-11.85v-1.96l4.86-.96h2.33l4.66.96ZM218.1,23.9v5.02c0,3.07.05,7.92.14,10.08h-6.07c.1-2.16.14-7.01.14-10.08v-4.54c0-3.78-.89-5.02-3.29-5.02-2.08,0-4.1,1.18-6.45,3.59h-1.38v-2.81h2.8l-2,1.11c2.82-3.96,6.1-5.91,9.53-5.91,4.18,0,6.57,2.63,6.57,8.56ZM216.33,36.08l4.75.96v1.96h-11.87v-1.96l4.8-.96h2.32Z"/>
    <path d="M243.95,25c0,1.07-.11,1.92-.3,2.64h-18.26v-2.28h10.19c2.3,0,2.87-.98,2.87-2.73,0-2.95-1.9-4.97-4.27-4.97-2.53,0-5.2,2.38-5.2,9.28,0,5.97,2.98,8.92,7.17,8.92,2.83,0,4.68-1.23,6.26-2.99l1.39,1.22c-1.85,3.58-5.12,5.59-9.63,5.59-6.71,0-11.3-4.52-11.3-12.04s5.59-12.29,11.67-12.29c5.65,0,9.41,3.85,9.41,9.66Z"/>
    <path d="M261.23,39c.1-2.16.14-7.1.14-10.08v-2.52c0-2.64-.05-3.88-.14-5.8l-3.38-.43v-1.79l8.03-3.04.77.5.51,5.45v7.64c0,2.98.05,7.92.14,10.08h-6.07ZM270.06,37.04v1.96h-11.85v-1.96l4.86-.96h2.33l4.66.96ZM281.68,23.9v5.02c0,3.07.05,7.92.14,10.08h-6.07c.1-2.16.14-7.01.14-10.08v-4.54c0-3.76-.96-5.02-3.35-5.02-2.05,0-4.19,1.12-6.5,3.42h-1.33v-2.64h2.85l-1.94,1.11c2.82-3.96,6.1-5.91,9.52-5.91,4.15,0,6.52,2.63,6.52,8.56ZM279.9,36.08l4.75.96v1.96h-11.87v-1.96l4.8-.96h2.32Z"/>
    <path d="M286.42,27.51c0-7.67,5.37-12.17,11.58-12.17s11.58,4.45,11.58,12.17-5.13,12.17-11.58,12.17-11.58-4.5-11.58-12.17ZM303.33,27.56c0-6.63-1.9-9.88-5.32-9.88s-5.32,3.26-5.32,9.88,1.84,9.78,5.32,9.78,5.32-3.14,5.32-9.78Z"/>
    <path d="M314.96,39c.1-2.16.14-7.1.14-10.08v-2.27c0-2.64-.05-4.13-.14-6.05l-3.44-.43v-1.79l8.68-3.04.77.5-.14,6.73v6.35c0,2.98.05,7.92.14,10.08h-6.01ZM323.79,37.04v1.96h-11.9v-1.96l4.86-.96h2.32l4.73.96ZM314.27,7.44c0-2.04,1.6-3.43,3.63-3.43s3.63,1.39,3.63,3.43-1.6,3.43-3.63,3.43-3.63-1.42-3.63-3.43Z"/>
    <path d="M326.68,37.66l-.03-5.57h3.21l1.19,6.05-2.53-1.02v-1.81c1.89,1.28,3.65,1.95,5.96,1.95,3.22,0,4.84-1.19,4.84-3.26,0-1.78-1.16-2.8-4.25-3.82l-2.4-.78c-3.61-1.19-5.81-3.36-5.81-6.8,0-3.95,3.25-7.27,9.16-7.27,2.72,0,4.87.7,7.15,1.95l-.26,5.06h-3.14l-1.17-5.4,2.2.96v1.51c-1.62-1.15-2.96-1.68-4.9-1.68-2.55,0-4.04,1.12-4.04,3,0,1.74.95,2.61,4.24,3.7l1.9.6c4.68,1.56,6.5,3.94,6.5,7.22,0,4.33-3.61,7.42-10.08,7.42-2.92,0-5.3-.68-7.74-2.02Z"/>
    <path d="M368.37,25c0,1.07-.11,1.92-.3,2.64h-18.26v-2.28h10.19c2.3,0,2.87-.98,2.87-2.73,0-2.95-1.9-4.97-4.27-4.97-2.53,0-5.2,2.38-5.2,9.28,0,5.97,2.98,8.92,7.17,8.92,2.83,0,4.68-1.23,6.26-2.99l1.39,1.22c-1.85,3.58-5.12,5.59-9.63,5.59-6.71,0-11.3-4.52-11.3-12.04s5.59-12.29,11.67-12.29c5.65,0,9.41,3.85,9.41,9.66Z"/>
  </g>
</svg>