<?xml version="1.0" encoding="UTF-8"?>
<svg id="Layer_1" data-name="Layer 1" xmlns="http://www.w3.org/2000/svg" viewBox="0 0 280.12 41.04">
  <defs>
    <style>
      .cls-1 {
        fill: #0f172a;
      }

      .cls-2 {
        fill: #3e5a82;
      }
    </style>
  </defs>
  <rect class="cls-2" width="40" height="40"/>
  <g>
    <path class="cls-1" d="M51.14,37.05c-1.58-1.58-2.18-3.81-2.18-6.6,0-2.42.76-4.52,2.21-5.96,1.73-1.73,3.86-2.26,6.57-2.26h2.58v-3.73c0-2.18-.95-3.34-2.6-3.34-.84,0-1.42.26-1.89.74-.63.63-.87,1.58-.87,2.65h-5.54c0-2.21.63-4.28,2.34-6.02,1.44-1.42,3.57-2.23,5.96-2.23,2.63,0,4.52.71,5.94,2.13,1.37,1.37,2.21,3.13,2.21,5.89v20.1h-5.2v-2.39c-.53.84-1.26,1.58-2.05,2.05-.74.45-1.71.76-2.97.76-1.97,0-3.42-.71-4.49-1.79ZM57.39,34c.76,0,1.42-.26,1.92-.76.74-.74,1-1.73,1-3v-4.1h-1.89c-1.18,0-2.13.16-2.92.92-.68.68-1.02,1.81-1.02,3.13,0,2.5,1.02,3.81,2.92,3.81Z"/>
    <path class="cls-1" d="M68.87,10.72h5.31v2.08c.55-.79,1.37-1.5,2.26-1.94.84-.42,1.66-.55,2.52-.55,2.21,0,4.07,1.13,5.26,2.84.74-.92,1.58-1.63,2.55-2.13.92-.45,1.94-.71,3.26-.71,2.23,0,3.52.71,4.52,1.71,1.6,1.63,1.94,3.42,1.94,6.36v20.05h-5.52v-19.92c0-2.18-1.21-3.26-2.76-3.26s-2.76,1.08-2.76,3.26v19.92h-5.54v-19.92c0-2.18-1.18-3.26-2.76-3.26s-2.76,1.08-2.76,3.26v19.92h-5.52V10.72Z"/>
    <path class="cls-1" d="M99.22,1.08h6.1v6.1h-6.1V1.08ZM99.51,11.48h5.52v26.93h-5.52V11.48Z"/>
    <path class="cls-1" d="M109.82,37.1c-2.26-2.26-2.37-6.36-2.37-12.53s.11-10.3,2.37-12.56c1.13-1.13,2.42-1.71,4.31-1.71s3.47.76,4.57,2.21V1h5.54v37.42h-5.31v-2.08c-1.18,1.58-2.63,2.5-4.68,2.5s-3.31-.6-4.44-1.73ZM113.63,32.45c.45.89,1.39,1.45,2.34,1.45.76,0,1.39-.26,1.89-.76.55-.55.84-1.39.84-2.6v-11.95c0-1.21-.29-2.02-.84-2.58-.5-.5-1.13-.76-1.89-.76-.97,0-1.89.53-2.34,1.42-.53,1.08-.66,2.94-.66,7.91s.13,6.83.66,7.88Z"/>
    <path class="cls-1" d="M139.69,36.1c-1.13-1.1-2.1-2.94-2.1-6.04v-14.37h-2.86v-4.2h2.86V3.65h5.52v7.83h3.89v4.2h-3.89v14.03c0,2.63,1.29,3.76,3.92,3.76h.05v4.94h-.42c-3.63,0-5.65-.97-6.96-2.31Z"/>
    <path class="cls-1" d="M148.92,1h5.52v11.54c.53-.66,1.26-1.29,2.05-1.68.81-.39,1.66-.55,2.63-.55,1.92,0,3.28.58,4.44,1.73,1.6,1.6,1.94,3.39,1.94,6.33v20.05h-5.54v-19.92c0-2.18-1.18-3.26-2.76-3.26s-2.76,1.08-2.76,3.26v19.92h-5.52V1Z"/>
    <path class="cls-1" d="M170.57,36.68c-1.97-1.97-2.68-5.39-2.68-12.11s.71-10.19,2.68-12.16c1.63-1.63,3.65-2.1,5.81-2.1,2.29,0,4.12.45,5.78,2.1,2.05,2.05,2.71,5.78,2.71,13.58v.16h-11.46c0,4.2.18,6.07,1.16,7.02.42.45,1.03.74,1.84.74s1.42-.24,1.89-.71c.74-.74.92-1.89.92-2.89h5.54c-.08,2.68-.84,4.86-2.5,6.49-1.45,1.45-3.34,2.05-5.86,2.05s-4.2-.53-5.83-2.16ZM179.34,22.07c0-3.07-.16-5.15-1.13-6.12-.42-.45-1-.71-1.84-.71s-1.39.26-1.81.71c-1,.97-1.13,3.05-1.16,6.12h5.94Z"/>
    <path class="cls-1" d="M196.29,10.72h5.31v2.08c.55-.79,1.39-1.5,2.26-1.94.81-.39,1.66-.55,2.63-.55,1.92,0,3.28.58,4.44,1.73,1.6,1.6,1.94,3.39,1.94,6.33v20.05h-5.54v-19.92c0-2.18-1.18-3.26-2.76-3.26s-2.76,1.08-2.76,3.26v19.92h-5.52V10.72Z"/>
    <path class="cls-1" d="M217.93,36.81c-2.42-2.44-2.68-6.7-2.68-12.25s.26-9.8,2.68-12.24c1.52-1.52,3.52-2.02,5.81-2.02s4.31.5,5.81,2.02c2.44,2.44,2.68,6.7,2.68,12.24s-.24,9.8-2.68,12.25c-1.5,1.5-3.52,2.02-5.81,2.02s-4.28-.53-5.81-2.02ZM221.92,33.16c.45.47,1.1.74,1.81.74s1.37-.26,1.84-.74c.97-.97,1.13-2.68,1.13-8.59s-.16-7.62-1.13-8.62c-.47-.45-1.13-.71-1.84-.71s-1.37.26-1.81.71c-1,1-1.16,2.71-1.16,8.62s.16,7.62,1.16,8.59Z"/>
    <path class="cls-1" d="M234.37,1.08h6.1v6.1h-6.1V1.08ZM234.66,11.48h5.52v26.93h-5.52V11.48Z"/>
    <path class="cls-1" d="M244.51,36.6c-1.63-1.63-2.29-3.6-2.31-6.25h5.44c.03,1.16.26,2.02.95,2.71.55.55,1.29.84,2.13.84.95,0,1.71-.29,2.23-.81.53-.53.81-1.29.81-2.26,0-1.97-1.05-2.81-2.79-3.65l-3.68-1.71c-3.42-1.58-4.81-3.47-4.81-7.15,0-2.42.84-4.2,2.34-5.73,1.55-1.55,3.68-2.29,6.04-2.29s4.31.6,5.75,2.05c1.47,1.45,2.34,3.42,2.34,6.2h-5.41c0-1.1-.21-2-.81-2.63-.55-.53-1.23-.76-1.97-.76-.87,0-1.58.26-2.08.76-.55.55-.81,1.26-.81,2.08,0,1.71.84,2.47,2.52,3.28l3.57,1.63c3.55,1.6,5.2,3.6,5.2,7.59,0,2.76-.84,4.6-2.29,6.02-1.6,1.6-3.89,2.31-6.28,2.31-2.55,0-4.62-.76-6.1-2.23Z"/>
    <path class="cls-1" d="M263.48,36.68c-1.97-1.97-2.68-5.39-2.68-12.11s.71-10.19,2.68-12.16c1.63-1.63,3.65-2.1,5.81-2.1,2.29,0,4.12.45,5.78,2.1,2.05,2.05,2.71,5.78,2.71,13.58v.16h-11.46c0,4.2.18,6.07,1.16,7.02.42.45,1.03.74,1.84.74s1.42-.24,1.89-.71c.74-.74.92-1.89.92-2.89h5.54c-.08,2.68-.84,4.86-2.5,6.49-1.45,1.45-3.34,2.05-5.86,2.05s-4.2-.53-5.83-2.16ZM272.26,22.07c0-3.07-.16-5.15-1.13-6.12-.42-.45-1-.71-1.84-.71s-1.39.26-1.81.71c-1,.97-1.13,3.05-1.16,6.12h5.94Z"/>
  </g>
</svg>